<?xml version="1.0" standalone="no"?>
<!DOCTYPE svg PUBLIC "-//W3C//DTD SVG 20010904//EN"
 "http://www.w3.org/TR/2001/REC-SVG-20010904/DTD/svg10.dtd">
<svg version="1.0" xmlns="http://www.w3.org/2000/svg"
 width="860.000000pt" height="784.000000pt" viewBox="0 0 860.000000 784.000000"
 preserveAspectRatio="xMidYMid meet">

<g transform="translate(0.000000,784.000000) scale(0.100000,-0.100000)"
fill="#000000" stroke="none">
<path d="M4120 7099 c-722 -39 -1416 -312 -1976 -776 -125 -102 -357 -339
-455 -463 -924 -1166 -925 -2758 -1 -3920 95 -119 318 -348 437 -448 741 -624
1705 -899 2672 -763 1365 192 2475 1193 2763 2491 205 923 -18 1884 -611 2632
-104 130 -334 365 -463 471 -483 401 -1057 656 -1681 746 -120 18 -459 43
-520 39 -11 0 -85 -5 -165 -9z m665 -137 c618 -98 1126 -318 1590 -689 137
-109 364 -335 470 -468 128 -160 278 -394 364 -569 73 -147 188 -433 178 -442
-2 -3 -4097 -84 -4244 -84 -9 0 -13 -18 -13 -55 l0 -55 48 0 c26 0 990 18
2142 40 1152 22 2097 36 2101 32 10 -10 54 -215 75 -342 25 -160 31 -586 10
-764 -42 -367 -143 -702 -311 -1031 -66 -130 -152 -276 -198 -335 l-20 -25 6
40 c31 211 33 596 3 742 -78 380 -281 604 -661 728 -303 100 -747 130 -1619
113 -1436 -29 -1889 -4 -2269 122 -439 147 -685 421 -812 907 -31 120 -69 338
-86 495 l-13 116 86 129 c420 627 1044 1083 1779 1297 141 41 379 89 519 105
52 6 109 13 125 15 17 2 163 3 325 1 238 -2 320 -7 425 -23z m405 -3957 l0
-65 -1965 0 -1964 0 -16 52 c-8 28 -15 55 -15 60 0 8 553 12 2653 16 l1307 2
0 -65z m-729 -782 c78 -36 139 -96 176 -171 24 -49 28 -69 28 -142 0 -71 -4
-94 -26 -140 -35 -75 -98 -136 -177 -173 -60 -29 -77 -32 -157 -32 -80 0 -97
3 -157 32 -79 37 -137 94 -175 171 -24 49 -28 69 -28 142 0 73 4 93 28 142 89
181 305 257 488 171z"/>
<path d="M4212 6029 c-118 -20 -232 -110 -273 -217 -46 -121 -19 -258 69 -350
220 -232 621 -88 625 223 2 216 -198 380 -421 344z"/>
</g>
</svg>
